<svg xmlns="http://www.w3.org/2000/svg" xmlns:xlink="http://www.w3.org/1999/xlink" viewBox="0 0 136 27" class="logo-big">
	<g clip-path="url(#clip_0)">
		<path fill="rgb(255,255,255)" stroke="none" transform="translate(49.8716 9.5182)" d="M6.37173 13.3418C2.6793 13.3418 0 10.537 0 6.6709C0 2.80564 2.6793 0 6.37173 0C9.30699 0 11.7061 1.68182 12.4846 4.28417C12.5064 4.35907 12.4924 4.43972 12.4455 4.50227C12.3994 4.56441 12.3262 4.60144 12.2484 4.60144L10.2312 4.60144C10.1308 4.60144 10.0403 4.54013 10.0028 4.44713C9.42304 3.01015 8.19017 2.18591 6.62069 2.18591C4.15208 2.18591 2.35998 4.07225 2.35998 6.6709C2.35998 9.26996 4.15208 11.1563 6.62069 11.1563C8.19017 11.1563 9.42304 10.3321 10.0028 8.89467C10.0403 8.80167 10.1308 8.74035 10.2312 8.74035L12.2484 8.74035C12.3262 8.74035 12.3994 8.77739 12.4455 8.84035C12.4924 8.90207 12.5064 8.98314 12.4846 9.05721C11.7061 11.6604 9.30699 13.3418 6.37173 13.3418"/>
	</g>
	<g clip-path="url(#clip_1)">
		<path fill="rgb(255,255,255)" stroke="none" transform="translate(34.9763 4.7368)" d="M6.47132 6.97459C4.08871 7.04783 2.36039 8.92964 2.36039 11.4522C2.36039 13.9751 4.08871 15.8565 6.47132 15.9297C8.83335 15.8573 10.4831 14.0171 10.4831 11.4522C10.4831 8.88767 8.83335 7.04742 6.47132 6.97459M6.5709 18.1231C6.5495 18.1231 6.52975 18.1222 6.50959 18.1206C6.50177 18.1198 6.49395 18.1194 6.48613 18.1194C6.47872 18.1194 6.46391 18.1198 6.4491 18.1206C6.42358 18.1222 6.39807 18.1231 6.37173 18.1231C2.67972 18.1231 0 15.3182 0 11.4522C0 11.2884 0.00123451 10.7115 0 10.618L0 0.246491C0 0.110283 0.110283 0 0.246491 0L2.1139 0C2.25011 0 2.36039 0.110283 2.36039 0.246491L2.36039 6.15034C3.45828 5.25244 4.83353 4.78127 6.37173 4.78127C6.39807 4.78127 6.42399 4.7825 6.44992 4.78374C6.46473 4.78456 6.47955 4.78538 6.49477 4.7858C6.49477 4.7858 6.50218 4.78456 6.50959 4.78415C6.52975 4.7825 6.5495 4.78127 6.5709 4.78127C7.9803 4.78127 9.28354 5.20882 10.3395 6.01825C11.3719 6.77542 12.1151 7.83052 12.4842 9.06585C12.4937 9.09713 12.4966 9.12922 12.4933 9.16132C12.7258 9.89544 12.8431 10.6662 12.8431 11.4522C12.8431 12.239 12.7258 13.0093 12.4933 13.7438C12.4966 13.7751 12.4937 13.808 12.4842 13.8385C12.1151 15.0738 11.3723 16.1293 10.3358 16.8894C9.28395 17.6955 7.98071 18.1231 6.5709 18.1231"/>
	</g>
	<g clip-path="url(#clip_2)">
		<path fill="rgb(255,255,255)" stroke="none" transform="translate(83.6074 4.7368)" d="M6.47173 6.97459C4.08912 7.04783 2.3608 8.92964 2.3608 11.4522C2.3608 13.9751 4.08912 15.8565 6.47173 15.9297C8.83418 15.8573 10.4835 14.0171 10.4835 11.4522C10.4835 8.88767 8.83418 7.04742 6.47173 6.97459M6.57131 18.1231C6.54991 18.1231 6.53016 18.1222 6.51 18.1206C6.50218 18.1198 6.49477 18.1194 6.48654 18.1194C6.47914 18.1194 6.46432 18.1198 6.44951 18.1206C6.42399 18.1222 6.39807 18.1231 6.37214 18.1231C2.68013 18.1231 0 15.3182 0 11.4522C0 11.2884 0.00123451 10.7115 0 10.618L0 0.246491C0 0.110283 0.110695 0 0.246491 0L2.11431 0C2.25052 0 2.3608 0.110283 2.3608 0.246491L2.3608 6.15034C3.45911 5.25244 4.83394 4.78127 6.37214 4.78127C6.39848 4.78127 6.42441 4.7825 6.45033 4.78374C6.46515 4.78456 6.48037 4.78538 6.4956 4.7858C6.4956 4.7858 6.50259 4.78456 6.51 4.78415C6.53016 4.7825 6.54991 4.78127 6.57131 4.78127C7.98113 4.78127 9.28436 5.20882 10.3395 6.01825C11.3723 6.77583 12.1155 7.83052 12.4846 9.06585C12.4941 9.09713 12.497 9.12922 12.4941 9.16091C12.7258 9.89544 12.8435 10.6662 12.8435 11.4522C12.8435 12.239 12.7258 13.0093 12.4941 13.7438C12.497 13.7751 12.4941 13.808 12.4846 13.8385C12.1155 15.0738 11.3723 16.1293 10.3362 16.8894C9.28436 17.6955 7.98113 18.1231 6.57131 18.1231"/>
	</g>
	<g clip-path="url(#clip_3)">
		<path fill="rgb(255,255,255)" stroke="none" transform="translate(98.762 4.7368)" d="M6.47173 6.97459C4.08912 7.04783 2.3608 8.92964 2.3608 11.4522C2.3608 13.9751 4.08912 15.8565 6.47173 15.9297C8.83376 15.8573 10.4835 14.0171 10.4835 11.4522C10.4835 8.88767 8.83376 7.04742 6.47173 6.97459M6.57131 18.1231C6.54991 18.1231 6.53016 18.1222 6.50959 18.1206C6.50177 18.1198 6.49477 18.1194 6.48613 18.1194C6.47914 18.1194 6.46391 18.1198 6.4491 18.1206C6.42399 18.1222 6.39807 18.1231 6.37214 18.1231C2.68013 18.1231 0 15.3182 0 11.4522C0 11.2876 0.00164602 10.7115 0 10.618L0 0.246491C0 0.110283 0.110695 0 0.246491 0L2.11431 0C2.25011 0 2.3608 0.110283 2.3608 0.246491L2.3608 6.15034C3.45911 5.25244 4.83435 4.78127 6.37214 4.78127C6.39848 4.78127 6.42441 4.7825 6.44992 4.78374C6.46515 4.78456 6.48037 4.78538 6.4956 4.7858C6.4956 4.7858 6.50218 4.78497 6.50959 4.78415C6.53016 4.7825 6.54991 4.78127 6.57131 4.78127C7.98113 4.78127 9.28395 5.20882 10.3399 6.01825C11.3723 6.77542 12.1155 7.83052 12.4846 9.06585C12.4941 9.09713 12.497 9.12922 12.4941 9.16132C12.7258 9.89544 12.8435 10.6662 12.8435 11.4522C12.8435 12.239 12.7258 13.0093 12.4941 13.7438C12.497 13.7751 12.4941 13.808 12.4846 13.8385C12.1155 15.0738 11.3723 16.1293 10.3366 16.8894C9.28436 17.6955 7.98113 18.1231 6.57131 18.1231"/>
	</g>
	<g clip-path="url(#clip_4)">
		<path fill="rgb(255,255,255)" stroke="none" transform="translate(64.6772 4.73676)" d="M2.11349 17.9247L0.24608 17.9247C0.109872 17.9247 0 17.8136 0 17.6778L0 0.246491C0 0.110283 0.109872 0 0.24608 0L2.11349 0C2.2497 0 2.36039 0.110283 2.36039 0.246491L2.36039 17.6778C2.36039 17.8136 2.2497 17.9247 2.11349 17.9247"/>
	</g>
	<g clip-path="url(#clip_5)">
		<path fill="rgb(255,255,255)" stroke="none" transform="translate(69.8481 9.71736)" d="M5.97093 13.1426C5.84007 13.1426 5.71744 13.1352 5.59893 13.1274C5.47712 13.1352 5.35573 13.1426 5.22652 13.1426C3.83769 13.1426 2.55009 12.6291 1.60199 11.6966C0.554296 10.6662 0 9.21235 0 7.49308L0 0.24608C0 0.110283 0.110695 0 0.246491 0L2.1139 0C2.25011 0 2.36039 0.110283 2.36039 0.24608L2.36039 7.44247C2.36039 9.1247 3.18628 10.3827 4.57058 10.8069C4.59074 10.8135 4.6142 10.8193 4.63807 10.8254L4.65741 10.8304C4.74053 10.8538 4.80802 10.8699 4.87139 10.8826C4.94546 10.8979 5.02529 10.909 5.1006 10.9197C5.1187 10.9221 5.1364 10.925 5.1545 10.9275C5.17672 10.9308 5.19977 10.9349 5.22322 10.9374C5.3405 10.9493 5.45984 10.9559 5.57753 10.9559C5.58535 10.9559 5.59234 10.9567 5.59893 10.9567C5.6051 10.9567 5.61168 10.9559 5.61786 10.9559C5.73761 10.9559 5.85694 10.9493 5.97504 10.9374C5.99768 10.9349 6.02031 10.9308 6.04335 10.9275C6.06105 10.925 6.07874 10.9221 6.09685 10.9197C6.17215 10.909 6.2524 10.8979 6.32688 10.8826C6.38861 10.8707 6.45609 10.8538 6.53798 10.8312L6.56226 10.8246C6.58489 10.8193 6.60711 10.8127 6.62933 10.8061C8.01034 10.3827 8.83664 9.1247 8.83664 7.44247L8.83664 0.24608C8.83664 0.110283 8.94693 0 9.08272 0L10.951 0C11.0872 0 11.197 0.110283 11.197 0.24608L11.197 7.49308C11.197 9.21235 10.6431 10.6662 9.59546 11.6966C8.64653 12.6291 7.35893 13.1426 5.97093 13.1426"/>
	</g>
	<g clip-path="url(#clip_6)">
		<path fill="rgb(255,255,255)" stroke="none" transform="translate(113.755 9.51803)" d="M2.48672 5.42857L10.3572 5.42857C9.91602 3.42042 8.43049 2.18591 6.42194 2.18591C4.41338 2.18591 2.92785 3.42042 2.48672 5.42857M6.54621 13.3418C2.75296 13.3418 0 10.537 0 6.67131C0 4.84011 0.612318 3.1657 1.72379 1.9567C2.90111 0.676925 4.52572 0 6.42194 0C8.31815 0 9.94277 0.676925 11.1197 1.9567C12.2316 3.1657 12.8439 4.84011 12.8439 6.67131L12.8439 7.41778C12.8439 7.5544 12.7332 7.66468 12.5974 7.66468L2.4501 7.66468C2.82662 9.76459 4.45124 11.1567 6.57131 11.1567C8.49962 11.1567 9.48147 10.0893 9.9654 9.19301C10.0082 9.11359 10.0917 9.06462 10.1823 9.06462L12.2233 9.06462C12.3044 9.06462 12.3809 9.10494 12.4266 9.17161C12.4731 9.23909 12.4826 9.32428 12.4534 9.39958C11.4653 11.9419 9.36749 13.3418 6.54621 13.3418"/>
	</g>
	<g clip-path="url(#clip_7)">
		<path fill="rgb(255,255,255)" stroke="none" transform="translate(128.786 9.51803)" d="M2.1139 13.1434L0.246491 13.1434C0.110695 13.1434 0 13.0323 0 12.8965L0 0.445659C0 0.309451 0.110695 0.199168 0.246491 0.199168L2.1139 0.199168C2.25052 0.199168 2.36039 0.309451 2.36039 0.445659L2.36039 2.39043C3.06077 1.25838 4.44384 0 6.69641 0L6.82069 0C6.95689 0 7.06718 0.110283 7.06718 0.246491L7.06718 2.1139C7.06718 2.25011 6.95689 2.36039 6.82069 2.36039L6.59683 2.36039C3.8451 2.36039 2.36039 4.96645 2.36039 7.41778L2.36039 12.8965C2.36039 13.0323 2.25052 13.1434 2.1139 13.1434"/>
	</g>
	<g clip-path="url(#clip_8)">
		<path fill="rgb(255,255,255)" stroke="none" transform="translate(0 0.5)" d="M25.2501 16.1287C25.0143 14.7525 24.3479 13.5539 23.2698 12.566C22.2805 11.6592 21.1052 11.1104 19.7775 10.9349C19.625 10.9145 19.4733 10.9015 19.3131 10.8876C19.2382 10.8811 19.1633 10.8746 19.0873 10.8677L18.9559 10.855L18.9967 10.6902C19.0024 10.6664 19.0074 10.6461 19.0132 10.6253C19.34 9.42356 19.2175 8.26059 18.6498 7.16906C17.6732 5.29288 15.4736 4.29967 13.4207 4.80741C12.4671 5.04323 11.6237 5.56211 10.8405 6.39478C10.2368 7.03694 9.73057 7.84464 9.2935 8.86358C8.65709 10.348 8.24306 12.0479 8.02798 14.0593C7.91891 15.0805 7.87666 16.111 7.90201 17.1219C7.91891 17.8005 7.96308 18.4177 8.03259 18.9996L8.03106 18.9996L8.09136 19.4597C8.09174 19.4616 8.09328 19.4632 8.09404 19.4651C8.09481 19.4716 8.09558 19.4778 8.09558 19.4778L8.09904 19.4774C8.12208 19.5534 8.21311 19.6022 8.3168 19.588L9.85232 19.3691C9.96447 19.3533 10.0455 19.2704 10.0328 19.1836L10.0075 19.0107C9.88727 18.0917 9.83619 17.1403 9.85808 16.1056C9.88573 14.8151 10.0182 13.5669 10.2525 12.3959C10.5148 11.0816 10.8582 10.0365 11.3329 9.10785C11.7842 8.22334 12.2896 7.60614 12.9234 7.16407C13.7599 6.58105 14.6451 6.47236 15.5542 6.84222C16.3911 7.18251 16.998 7.91339 17.1773 8.79868C17.3578 9.6878 17.0825 10.603 16.4407 11.246C16.2271 11.4603 15.974 11.6112 15.7294 11.7576L15.6433 11.8086C15.2731 12.0314 15.098 12.4842 15.2178 12.9098C15.333 13.3196 15.7182 13.6099 16.1549 13.6157C16.3992 13.6207 16.6143 13.5112 16.8297 13.3906C17.7592 12.8691 18.7616 12.7112 19.8086 12.9209C21.4105 13.2424 22.7329 14.3973 23.1769 15.8644C23.7165 17.6492 22.9672 19.6798 21.0656 21.5809C18.8599 23.618 16.2237 24.6493 13.226 24.6493C13.2072 24.6493 13.1884 24.6493 13.1695 24.6489C12.5335 24.6462 11.9013 24.5863 11.2903 24.4711C8.86295 24.0129 6.78436 22.8918 5.11058 21.1396C3.39571 19.3437 2.36448 17.1703 2.04493 14.6803C1.89245 13.4905 1.93662 12.283 2.17667 11.092C2.65484 8.71418 3.77709 6.68206 5.51271 5.05207C7.69692 3.00036 10.3359 1.95569 13.3562 1.94609C13.902 1.94762 14.4796 2.00408 15.2228 2.13966C16.6024 2.39046 17.7991 2.8018 18.8811 3.39711C19.6546 3.82227 20.3816 4.35767 21.1029 5.02979L21.202 5.12005C21.2665 5.17919 21.3806 5.15922 21.4574 5.07626L22.504 3.93135C22.5804 3.848 22.5904 3.7324 22.5255 3.67325L22.3796 3.53998L22.3765 3.54305C21.6406 2.85057 20.902 2.29444 20.1247 1.85429C17.9489 0.623347 15.603 0 13.1484 0C13.0439 0 12.9399 0.00115221 12.8354 0.00345664C11.9225 0.0230442 11.026 0.141722 10.1711 0.356418C7.17228 1.10843 4.69195 2.71615 2.80001 5.13464C1.26373 7.09839 0.345802 9.38554 0.0715755 11.9315C-0.0405731 12.9774 -0.0209855 14.0555 0.130722 15.1358C0.350027 16.6975 0.821666 18.1642 1.53296 19.4947C2.89987 22.0526 4.90203 23.9933 7.48299 25.2626C9.1729 26.0938 11.0038 26.5454 12.9241 26.6046C14.1251 26.6422 15.3238 26.5151 16.4875 26.2274C18.8465 25.6448 20.9201 24.4822 22.6507 22.7719C24.6786 20.744 25.6261 18.3225 25.2501 16.1287"/>
	</g>
	<g clip-path="url(#clip_9)">
		<path fill="none" stroke="rgb(255,255,255)" stroke-width="1.169" stroke-linecap="round" stroke-linejoin="round" transform="translate(0 0.5)" d="M25.2501 16.1287C25.0143 14.7525 24.3479 13.5539 23.2698 12.566C22.2805 11.6592 21.1052 11.1104 19.7775 10.9349C19.625 10.9145 19.4733 10.9015 19.3131 10.8876C19.2382 10.8811 19.1633 10.8746 19.0873 10.8677L18.9559 10.855L18.9967 10.6902C19.0024 10.6664 19.0074 10.6461 19.0132 10.6253C19.34 9.42356 19.2175 8.26059 18.6498 7.16906C17.6732 5.29288 15.4736 4.29967 13.4207 4.80741C12.4671 5.04323 11.6237 5.56211 10.8405 6.39478C10.2368 7.03694 9.73057 7.84464 9.2935 8.86358C8.65709 10.348 8.24306 12.0479 8.02798 14.0593C7.91891 15.0805 7.87666 16.111 7.90201 17.1219C7.91891 17.8005 7.96308 18.4177 8.03259 18.9996L8.03106 18.9996L8.09136 19.4597C8.09174 19.4616 8.09328 19.4632 8.09404 19.4651C8.09481 19.4716 8.09558 19.4778 8.09558 19.4778L8.09904 19.4774C8.12208 19.5534 8.21311 19.6022 8.3168 19.588L9.85232 19.3691C9.96447 19.3533 10.0455 19.2704 10.0328 19.1836L10.0075 19.0107C9.88727 18.0917 9.83619 17.1403 9.85808 16.1056C9.88573 14.8151 10.0182 13.5669 10.2525 12.3959C10.5148 11.0816 10.8582 10.0365 11.3329 9.10785C11.7842 8.22334 12.2896 7.60614 12.9234 7.16407C13.7599 6.58105 14.6451 6.47236 15.5542 6.84222C16.3911 7.18251 16.998 7.91339 17.1773 8.79868C17.3578 9.6878 17.0825 10.603 16.4407 11.246C16.2271 11.4603 15.974 11.6112 15.7294 11.7576L15.6433 11.8086C15.2731 12.0314 15.098 12.4842 15.2178 12.9098C15.333 13.3196 15.7182 13.6099 16.1549 13.6157C16.3992 13.6207 16.6143 13.5112 16.8297 13.3906C17.7592 12.8691 18.7616 12.7112 19.8086 12.9209C21.4105 13.2424 22.7329 14.3973 23.1769 15.8644C23.7165 17.6492 22.9672 19.6798 21.0656 21.5809C18.8599 23.618 16.2237 24.6493 13.226 24.6493C13.2072 24.6493 13.1884 24.6493 13.1695 24.6489C12.5335 24.6462 11.9013 24.5863 11.2903 24.4711C8.86295 24.0129 6.78436 22.8918 5.11058 21.1396C3.39571 19.3437 2.36448 17.1703 2.04493 14.6803C1.89245 13.4905 1.93662 12.283 2.17667 11.092C2.65484 8.71418 3.77709 6.68206 5.51271 5.05207C7.69692 3.00036 10.3359 1.95569 13.3562 1.94609C13.902 1.94762 14.4796 2.00408 15.2228 2.13966C16.6024 2.39046 17.7991 2.8018 18.8811 3.39711C19.6546 3.82227 20.3816 4.35767 21.1029 5.02979L21.202 5.12005C21.2665 5.17919 21.3806 5.15922 21.4574 5.07626L22.504 3.93135C22.5804 3.848 22.5904 3.7324 22.5255 3.67325L22.3796 3.53998L22.3765 3.54305C21.6406 2.85057 20.902 2.29444 20.1247 1.85429C17.9489 0.623347 15.603 0 13.1484 0C13.0439 0 12.9399 0.00115221 12.8354 0.00345664C11.9225 0.0230442 11.026 0.141722 10.1711 0.356418C7.17228 1.10843 4.69195 2.71615 2.80001 5.13464C1.26373 7.09839 0.345802 9.38554 0.0715755 11.9315C-0.0405731 12.9774 -0.0209855 14.0555 0.130722 15.1358C0.350027 16.6975 0.821666 18.1642 1.53296 19.4947C2.89987 22.0526 4.90203 23.9933 7.48299 25.2626C9.1729 26.0938 11.0038 26.5454 12.9241 26.6046C14.1251 26.6422 15.3238 26.5151 16.4875 26.2274C18.8465 25.6448 20.9201 24.4822 22.6507 22.7719C24.6786 20.744 25.6261 18.3225 25.2501 16.1287Z"/>
	</g>
</svg>