<?xml version="1.0" encoding="utf-8" ?>
<svg xmlns="http://www.w3.org/2000/svg" xmlns:xlink="http://www.w3.org/1999/xlink" width="24" height="24">
	<defs>
		<clipPath id="clip_0">
			<rect x="-240" y="-16" width="320" height="1024" clip-rule="evenodd"/>
		</clipPath>
	</defs>
	<g clip-path="url(#clip_0)">
		<path fill="none" stroke="rgb(255,255,255)" stroke-width="1.5" stroke-linecap="round" stroke-miterlimit="4" transform="translate(10.7413 2.90909)" d="M0.000499964 0.401765L0.000499964 6.08358"/>
	</g>
	<defs>
		<clipPath id="clip_1">
			<rect x="-240" y="-16" width="320" height="1024" clip-rule="evenodd"/>
		</clipPath>
	</defs>
	<g clip-path="url(#clip_1)">
		<path fill="none" stroke="rgb(255,255,255)" stroke-width="1.5" stroke-linecap="round" stroke-miterlimit="4" transform="translate(11.1958 13.8182)" d="M0.000500202 0L0.000500202 7.27273"/>
	</g>
	<defs>
		<clipPath id="clip_2">
			<rect x="-240" y="-16" width="320" height="1024" clip-rule="evenodd"/>
		</clipPath>
	</defs>
	<g clip-path="url(#clip_2)">
		<path fill="none" stroke="rgb(255,255,255)" stroke-width="1.5" stroke-linecap="round" stroke-linejoin="round" transform="translate(3.68323 17.4545)" d="M1.81818 3.63636C2.82234 3.63636 3.63636 2.82234 3.63636 1.81818C3.63636 0.814028 2.82234 0 1.81818 0C0.814028 0 0 0.814028 0 1.81818C0 2.82234 0.814028 3.63636 1.81818 3.63636Z"/>
	</g>
	<defs>
		<clipPath id="clip_3">
			<rect x="-240" y="-16" width="320" height="1024" clip-rule="evenodd"/>
		</clipPath>
	</defs>
	<g clip-path="url(#clip_3)">
		<path fill="none" stroke="rgb(255,255,255)" stroke-width="1.5" stroke-linecap="round" stroke-linejoin="round" transform="translate(10.2867 9.94855)" d="M1.81818 3.63636C2.82234 3.63636 3.63636 2.82234 3.63636 1.81818C3.63636 0.814028 2.82234 0 1.81818 0C0.814028 0 0 0.814028 0 1.81818C0 2.82234 0.814028 3.63636 1.81818 3.63636Z"/>
	</g>
	<defs>
		<clipPath id="clip_4">
			<rect x="-240" y="-16" width="320" height="1024" clip-rule="evenodd"/>
		</clipPath>
	</defs>
	<g clip-path="url(#clip_4)">
		<path fill="none" stroke="rgb(255,255,255)" stroke-width="1.5" stroke-linecap="round" stroke-linejoin="round" transform="translate(16.8672 3.70144)" d="M1.81818 3.63636C2.82234 3.63636 3.63636 2.82234 3.63636 1.81818C3.63636 0.814028 2.82234 0 1.81818 0C0.814028 0 0 0.814028 0 1.81818C0 2.82234 0.814028 3.63636 1.81818 3.63636Z"/>
	</g>
	<defs>
		<clipPath id="clip_5">
			<rect x="-240" y="-16" width="320" height="1024" clip-rule="evenodd"/>
		</clipPath>
	</defs>
	<g clip-path="url(#clip_5)">
		<path fill="none" stroke="rgb(255,255,255)" stroke-width="1.5" stroke-linecap="round" stroke-miterlimit="4" transform="translate(17.7764 7.74751)" d="M0.000333468 0.152439L0.000333468 12.9025"/>
	</g>
	<defs>
		<clipPath id="clip_6">
			<rect x="-240" y="-16" width="320" height="1024" clip-rule="evenodd"/>
		</clipPath>
	</defs>
	<g clip-path="url(#clip_6)">
		<path fill="none" stroke="rgb(255,255,255)" stroke-width="1.5" stroke-linecap="round" stroke-miterlimit="4" transform="translate(4.59229 2.45454)" d="M0.000333349 0.802178L0.000333349 12.8354"/>
	</g>

</svg>